<svg width="32" height="32" viewBox="0 0 32 32" fill="none" xmlns="http://www.w3.org/2000/svg">
<path fill-rule="evenodd" clip-rule="evenodd" d="M14.0001 2.66671C14.7734 2.66671 15.5334 2.74404 16.2654 2.89337C16.612 2.96374 16.9164 3.1689 17.1117 3.46371C17.307 3.75851 17.3771 4.11882 17.3068 4.46537C17.2364 4.81192 17.0312 5.11632 16.7364 5.31161C16.4416 5.5069 16.0813 5.57708 15.7348 5.50671C14.0554 5.16412 12.3122 5.32717 10.7255 5.97522C9.13881 6.62328 7.77989 7.72725 6.82056 9.14755C5.86123 10.5679 5.34457 12.2407 5.3359 13.9546C5.32722 15.6685 5.82693 17.3465 6.77183 18.7765C7.71674 20.2064 9.06441 21.3241 10.6445 21.9882C12.2245 22.6522 13.966 22.8329 15.6487 22.5074C17.3315 22.1818 18.8799 21.3646 20.0982 20.1591C21.3165 18.9536 22.1501 17.4139 22.4934 15.7347C22.5283 15.5631 22.5966 15.4001 22.6944 15.2549C22.7923 15.1097 22.9178 14.9852 23.0638 14.8885C23.2097 14.7918 23.3733 14.7248 23.5452 14.6913C23.7171 14.6578 23.8938 14.6585 24.0654 14.6934C24.237 14.7282 24.4001 14.7965 24.5453 14.8944C24.6905 14.9922 24.815 15.1177 24.9117 15.2637C25.0084 15.4097 25.0754 15.5733 25.1088 15.7451C25.1423 15.917 25.1416 16.0938 25.1068 16.2654C24.782 17.8555 24.1195 19.3574 23.1641 20.6694L22.9014 21.016L27.7708 25.8854C28.0124 26.1248 28.1535 26.4475 28.165 26.7874C28.1765 27.1274 28.0577 27.4589 27.8328 27.7141C27.6079 27.9694 27.294 28.129 26.9553 28.1603C26.6165 28.1916 26.2787 28.0923 26.0108 27.8827L25.8854 27.7707L21.0161 22.9014C19.5967 24.02 17.9304 24.7829 16.1561 25.1266C14.3819 25.4702 12.5512 25.3846 10.8168 24.8768C9.08237 24.3691 7.49453 23.4539 6.18574 22.2077C4.87696 20.9614 3.88517 19.4203 3.29313 17.7128C2.70109 16.0053 2.52597 14.181 2.78237 12.3921C3.03877 10.6032 3.71927 8.90149 4.76708 7.42905C5.81488 5.9566 7.19963 4.75607 8.80577 3.92763C10.4119 3.09919 12.1929 2.66686 14.0001 2.66671ZM25.3334 1.33337C25.5829 1.33337 25.8273 1.40334 26.039 1.53534C26.2506 1.66733 26.421 1.85604 26.5308 2.08004L26.5948 2.23604L26.7681 2.74004C26.951 3.27629 27.2458 3.76755 27.6329 4.1813C28.02 4.59505 28.4905 4.92184 29.0134 5.14004L29.2601 5.23337L29.7641 5.40537C30.0137 5.49052 30.2324 5.64777 30.3926 5.85724C30.5528 6.0667 30.6473 6.31897 30.6642 6.58214C30.681 6.84532 30.6194 7.10757 30.4872 7.33575C30.355 7.56393 30.1581 7.74777 29.9214 7.86404L29.7641 7.92804L29.2601 8.10137C28.7238 8.28431 28.2326 8.57908 27.8188 8.96617C27.4051 9.35325 27.0783 9.82382 26.8601 10.3467L26.7668 10.5934L26.5948 11.0974C26.5095 11.3469 26.3521 11.5655 26.1425 11.7256C25.933 11.8857 25.6807 11.98 25.4175 11.9967C25.1544 12.0134 24.8922 11.9517 24.6641 11.8194C24.436 11.6871 24.2522 11.4901 24.1361 11.2534L24.0721 11.0974L23.8988 10.5934C23.7158 10.0571 23.4211 9.56587 23.034 9.15212C22.6469 8.73837 22.1763 8.41157 21.6534 8.19337L21.4068 8.10004L20.9028 7.92804C20.6532 7.84289 20.4344 7.68564 20.2742 7.47618C20.114 7.26672 20.0195 7.01445 20.0027 6.75127C19.9858 6.4881 20.0474 6.22584 20.1796 5.99766C20.3118 5.76949 20.5087 5.58564 20.7454 5.46937L20.9028 5.40537L21.4068 5.23204C21.943 5.04911 22.4343 4.75434 22.848 4.36725C23.2618 3.98016 23.5886 3.5096 23.8068 2.98671L23.9001 2.74004L24.0721 2.23604C24.1619 1.97282 24.3318 1.74429 24.558 1.58243C24.7842 1.42057 25.0553 1.33348 25.3334 1.33337ZM25.3334 5.59471C25.018 5.99164 24.6584 6.3513 24.2614 6.66671C24.6596 6.98226 25.017 7.3396 25.3334 7.73871C25.649 7.34049 26.0063 6.98315 26.4054 6.66671C26.0085 6.3513 25.6488 5.99164 25.3334 5.59471Z" fill="#0861BB"/>
</svg>
