<svg width="32" height="32" viewBox="0 0 32 32" fill="none" xmlns="http://www.w3.org/2000/svg">
<path fill-rule="evenodd" clip-rule="evenodd" d="M14 2.66671C14.7733 2.66671 15.5333 2.74404 16.2653 2.89337C16.6119 2.96374 16.9163 3.1689 17.1115 3.46371C17.3068 3.75851 17.377 4.11882 17.3066 4.46537C17.2363 4.81192 17.0311 5.11632 16.7363 5.31161C16.4415 5.5069 16.0812 5.57708 15.7346 5.50671C14.0553 5.16412 12.3121 5.32717 10.7254 5.97522C9.13869 6.62328 7.77977 7.72725 6.82044 9.14755C5.86111 10.5679 5.34445 12.2407 5.33578 13.9546C5.3271 15.6685 5.82681 17.3465 6.77171 18.7765C7.71662 20.2064 9.06429 21.3241 10.6443 21.9882C12.2244 22.6522 13.9659 22.8329 15.6486 22.5074C17.3313 22.1818 18.8797 21.3646 20.0981 20.1591C21.3164 18.9536 22.1499 17.4139 22.4933 15.7347C22.5281 15.5631 22.5964 15.4001 22.6943 15.2549C22.7922 15.1097 22.9177 14.9852 23.0636 14.8885C23.2096 14.7918 23.3732 14.7248 23.5451 14.6913C23.7169 14.6578 23.8937 14.6585 24.0653 14.6934C24.2369 14.7282 24.3999 14.7965 24.5451 14.8944C24.6903 14.9922 24.8148 15.1177 24.9115 15.2637C25.0082 15.4097 25.0752 15.5733 25.1087 15.7451C25.1422 15.917 25.1415 16.0938 25.1066 16.2654C24.7819 17.8555 24.1194 19.3574 23.164 20.6694L22.9013 21.016L27.7706 25.8854C28.0123 26.1248 28.1533 26.4475 28.1649 26.7874C28.1764 27.1274 28.0576 27.4589 27.8327 27.7141C27.6078 27.9694 27.2939 28.129 26.9551 28.1603C26.6164 28.1916 26.2785 28.0923 26.0106 27.8827L25.8853 27.7707L21.016 22.9014C19.5966 24.02 17.9302 24.7829 16.156 25.1266C14.3818 25.4702 12.5511 25.3846 10.8167 24.8768C9.08224 24.3691 7.49441 23.4539 6.18562 22.2077C4.87683 20.9614 3.88505 19.4203 3.29301 17.7128C2.70097 16.0053 2.52585 14.181 2.78225 12.3921C3.03865 10.6032 3.71914 8.90149 4.76695 7.42905C5.81476 5.9566 7.1995 4.75607 8.80565 3.92763C10.4118 3.09919 12.1928 2.66686 14 2.66671ZM25.3333 1.33337C25.5827 1.33337 25.8272 1.40334 26.0388 1.53534C26.2505 1.66733 26.4209 1.85604 26.5306 2.08004L26.5946 2.23604L26.768 2.74004C26.9509 3.27629 27.2457 3.76755 27.6328 4.1813C28.0198 4.59505 28.4904 4.92184 29.0133 5.14004L29.26 5.23337L29.764 5.40537C30.0136 5.49052 30.2323 5.64777 30.3925 5.85724C30.5527 6.0667 30.6472 6.31897 30.6641 6.58214C30.6809 6.84532 30.6193 7.10757 30.4871 7.33575C30.3549 7.56393 30.158 7.74777 29.9213 7.86404L29.764 7.92804L29.26 8.10137C28.7237 8.28431 28.2325 8.57908 27.8187 8.96617C27.405 9.35325 27.0782 9.82382 26.86 10.3467L26.7666 10.5934L26.5946 11.0974C26.5093 11.3469 26.352 11.5655 26.1424 11.7256C25.9329 11.8857 25.6806 11.98 25.4174 11.9967C25.1543 12.0134 24.892 11.9517 24.664 11.8194C24.4359 11.6871 24.2521 11.4901 24.136 11.2534L24.072 11.0974L23.8986 10.5934C23.7157 10.0571 23.4209 9.56587 23.0338 9.15212C22.6468 8.73837 22.1762 8.41157 21.6533 8.19337L21.4066 8.10004L20.9026 7.92804C20.6531 7.84289 20.4343 7.68564 20.2741 7.47618C20.1139 7.26672 20.0194 7.01445 20.0025 6.75127C19.9857 6.4881 20.0473 6.22584 20.1795 5.99766C20.3117 5.76949 20.5086 5.58564 20.7453 5.46937L20.9026 5.40537L21.4066 5.23204C21.9429 5.04911 22.4341 4.75434 22.8479 4.36725C23.2616 3.98016 23.5884 3.5096 23.8066 2.98671L23.9 2.74004L24.072 2.23604C24.1618 1.97282 24.3317 1.74429 24.5579 1.58243C24.784 1.42057 25.0552 1.33348 25.3333 1.33337ZM25.3333 5.59471C25.0179 5.99164 24.6582 6.3513 24.2613 6.66671C24.6595 6.98226 25.0169 7.3396 25.3333 7.73871C25.6489 7.34049 26.0062 6.98315 26.4053 6.66671C26.0084 6.3513 25.6487 5.99164 25.3333 5.59471Z" fill="white"/>
</svg>
