<svg width="32" height="32" viewBox="0 0 32 32" fill="none" xmlns="http://www.w3.org/2000/svg">
<g clip-path="url(#clip0_117_1225)">
<path d="M0.934272 16.9474H3.60513C4.0657 23.0526 8.96056 27.9606 15.0526 28.4211V31.0526C15.0526 31.5789 15.4606 32 15.9868 32C16.5263 32 16.9343 31.5789 16.9343 31.0526V28.4211C23.0263 27.9606 27.9211 23.0526 28.3817 16.9469H31.0526C31.1771 16.9475 31.3005 16.9234 31.4157 16.876C31.5309 16.8287 31.6355 16.759 31.7236 16.6709C31.8117 16.5829 31.8815 16.4783 31.9289 16.3631C31.9764 16.248 32.0005 16.1245 32 16C32 15.4737 31.5788 15.0657 31.0526 15.0657H28.3817C27.9211 8.96057 23.0263 4.05257 16.9343 3.592V0.947429C16.9343 0.421143 16.5257 0 15.9868 0C15.4606 0 15.0526 0.421143 15.0526 0.947429V3.592C8.96056 4.05257 4.0657 8.96057 3.60513 15.0663H0.934272C0.407986 15.0657 0.0571289 15.4731 0.0571289 16C0.0571289 16.5269 0.407986 16.9474 0.934272 16.9474ZM15.9868 10.8029C16.5263 10.8029 16.9343 10.3817 16.9343 9.85543V5.73714C21.8817 6.184 25.7234 10.0657 26.1583 15.0657H22.1446C21.6188 15.0657 21.1971 15.4737 21.1971 16C21.1971 16.5263 21.6183 16.9474 22.1446 16.9474H26.1583C25.724 21.9343 21.8817 25.816 16.9343 26.2634V22.1446C16.9343 21.6189 16.5263 21.2103 15.9868 21.2103C15.4606 21.2103 15.0526 21.6183 15.0526 22.1446V26.2634C10.1051 25.816 6.26341 21.9343 5.82913 16.9474H9.84227C10.368 16.9474 10.7897 16.5263 10.7897 16C10.7897 15.4737 10.3686 15.0657 9.84227 15.0657H5.82856C6.26284 10.0657 10.1046 6.184 15.052 5.73714V9.85543C15.052 10.3811 15.4606 10.8029 15.9868 10.8029Z" fill="white"/>
</g>
<defs>
<clipPath id="clip0_117_1225">
<rect width="32" height="32" fill="white"/>
</clipPath>
</defs>
</svg>
