<svg width="32" height="32" viewBox="0 0 32 32" fill="none" xmlns="http://www.w3.org/2000/svg">
<path d="M16.0001 29.3334C23.3641 29.3334 29.3334 23.364 29.3334 16C29.3334 8.63602 23.3641 2.66669 16.0001 2.66669C8.63608 2.66669 2.66675 8.63602 2.66675 16C2.66675 23.364 8.63608 29.3334 16.0001 29.3334Z" stroke="white" stroke-width="2"/>
<path d="M16.0107 14.0107C15.4803 14.0107 14.9716 14.2214 14.5965 14.5965C14.2215 14.9716 14.0107 15.4803 14.0107 16.0107C14.0107 16.5411 14.2215 17.0498 14.5965 17.4249C14.9716 17.8 15.4803 18.0107 16.0107 18.0107C16.5412 18.0107 17.0499 17.8 17.425 17.4249C17.8 17.0498 18.0107 16.5411 18.0107 16.0107C18.0107 15.4803 17.8 14.9716 17.425 14.5965C17.0499 14.2214 16.5412 14.0107 16.0107 14.0107ZM16.0107 14.0107V9.33337M20.0201 20.0267L17.4214 17.4294" stroke="white" stroke-width="2" stroke-linecap="round" stroke-linejoin="round"/>
</svg>
