<svg width="32" height="32" viewBox="0 0 32 32" fill="none" xmlns="http://www.w3.org/2000/svg">
<path d="M16 29.3334C23.364 29.3334 29.3333 23.364 29.3333 16C29.3333 8.63602 23.364 2.66669 16 2.66669C8.63596 2.66669 2.66663 8.63602 2.66663 16C2.66663 23.364 8.63596 29.3334 16 29.3334Z" stroke="#0861BB" stroke-width="2"/>
<path d="M16.0106 14.0107C15.4802 14.0107 14.9715 14.2214 14.5964 14.5965C14.2213 14.9716 14.0106 15.4803 14.0106 16.0107C14.0106 16.5411 14.2213 17.0498 14.5964 17.4249C14.9715 17.8 15.4802 18.0107 16.0106 18.0107C16.5411 18.0107 17.0498 17.8 17.4248 17.4249C17.7999 17.0498 18.0106 16.5411 18.0106 16.0107C18.0106 15.4803 17.7999 14.9716 17.4248 14.5965C17.0498 14.2214 16.5411 14.0107 16.0106 14.0107ZM16.0106 14.0107V9.33337M20.02 20.0267L17.4213 17.4294" stroke="#0861BB" stroke-width="2" stroke-linecap="round" stroke-linejoin="round"/>
</svg>
