<svg width="50" height="50" viewBox="0 0 50 50" fill="none" xmlns="http://www.w3.org/2000/svg">
<path d="M26.7613 0.685059H23.4344V2.44631H26.7613V0.685059Z" fill="#121212"/>
<path d="M39.2857 9.14863L46.888 23.5084C47.1007 23.9102 47.2171 24.3559 47.2282 24.8103L47.2412 25.3446C47.2537 25.8561 47.1323 26.3619 46.889 26.812L46.434 27.6539C46.3328 27.841 46.2116 28.0164 46.0726 28.1774L28.4015 48.6267C27.9104 49.1951 26.9885 49.0209 26.7385 48.3126L25.2446 44.0801H27.6419L42.4467 26.0804C43.2234 25.136 43.3334 23.8091 42.7227 22.7498L35.217 9.72875C34.9969 9.34691 34.6936 9.01953 34.3296 8.77091L25 2.39716V0.0488281H26.2809C26.6887 0.0488281 27.0864 0.176271 27.4183 0.413342L27.9354 0.782683L38.0904 7.33429C38.3922 7.52899 38.6346 7.80302 38.7911 8.12633L39.2857 9.14863Z" fill="#121212" stroke="#121212" stroke-width="0.0469667"/>
<path d="M10.6654 9.0998L3.06315 23.4596C2.85045 23.8614 2.73397 24.307 2.72289 24.7614L2.70986 25.2958C2.69738 25.8072 2.81881 26.3131 3.0621 26.7632L3.51873 27.6079C3.61882 27.7932 3.73852 27.9669 3.87579 28.1265L21.543 48.6624C22.035 49.2342 22.9618 49.0577 23.2091 48.3451L24.7065 44.0313H22.3092L7.50444 26.0316C6.72771 25.0872 6.61772 23.7603 7.22836 22.701L14.7341 9.67992C14.9542 9.29808 15.2575 8.97071 15.6214 8.72208L24.9511 2.34834V0H23.6702C23.2623 0 22.8647 0.127443 22.5328 0.364514L22.0157 0.733855L11.8607 7.28546C11.5589 7.48017 11.3165 7.75419 11.16 8.07751L10.6654 9.0998Z" fill="#121212"/>
<path d="M27.6419 44.0312H22.3582V49.0215H27.6419V44.0312Z" fill="#121212"/>
<path d="M24.9511 11.4483L31.5558 15.9003L33.5616 13.6499L24.9511 7.92578L15.9491 13.6499L18.1507 15.9003L24.9511 11.4483Z" fill="#121212" stroke="#121212" stroke-width="0.0469667"/>
<path d="M25.2447 33.6594L10.274 16.0958L7.28967 18.1016L25.2447 38.9921L42.5636 18.1016L40.1664 15.5576L25.2447 33.6594Z" fill="#121212" stroke="#121212" stroke-width="0.0469667"/>
<path d="M25.0489 21.4286L13.7964 7.77888L11.3992 10.0783L25.0489 26.321L38.6497 10.0783L36.5459 7.24072L25.0489 21.4286Z" fill="#121212" stroke="#121212" stroke-width="0.0469667"/>
</svg>
