<svg width="18" height="18" viewBox="0 0 18 18" fill="none" xmlns="http://www.w3.org/2000/svg">
<path d="M17.105 0.421057C16.9159 0.233224 16.6786 0.101178 16.4192 0.0394311C16.1599 -0.0223156 15.8885 -0.0113729 15.635 0.0710566L1.00503 4.95106C0.733698 5.03703 0.493932 5.20149 0.316014 5.42365C0.138095 5.64581 0.0300049 5.91572 0.00539418 6.19928C-0.0192166 6.48284 0.0407563 6.76733 0.177738 7.01682C0.31472 7.26632 0.522567 7.46962 0.775027 7.60106L6.84503 10.6011L9.84503 16.6911C9.96561 16.9294 10.1501 17.1296 10.3779 17.2691C10.6058 17.4086 10.8679 17.482 11.135 17.4811H11.235C11.5211 17.46 11.7943 17.3534 12.019 17.175C12.2437 16.9967 12.4095 16.7549 12.495 16.4811L17.445 1.89106C17.5334 1.63899 17.5484 1.367 17.4882 1.10675C17.428 0.846508 17.2951 0.608714 17.105 0.421057ZM1.62503 6.33106L14.395 2.07106L7.30503 9.16106L1.62503 6.33106ZM11.205 15.9011L8.36503 10.2211L15.455 3.13106L11.205 15.9011Z" fill="white"/>
</svg>
