<svg width="21" height="20" viewBox="0 0 21 20" fill="none" xmlns="http://www.w3.org/2000/svg">
<path d="M10.501 0C16.024 0 20.501 4.477 20.501 10C20.501 15.523 16.024 20 10.501 20C8.73375 20.003 6.99757 19.5353 5.47099 18.645L0.504992 20L1.85699 15.032C0.96595 13.5049 0.497895 11.768 0.500992 10C0.500992 4.477 4.97799 0 10.501 0ZM7.09299 5.3L6.89299 5.308C6.76368 5.31691 6.63734 5.35087 6.52099 5.408C6.41257 5.46951 6.31355 5.5463 6.22699 5.636C6.10699 5.749 6.03899 5.847 5.96599 5.942C5.59611 6.4229 5.39696 7.01331 5.39999 7.62C5.40199 8.11 5.52999 8.587 5.72999 9.033C6.13899 9.935 6.81199 10.89 7.69999 11.775C7.91399 11.988 8.12399 12.202 8.34999 12.401C9.45342 13.3724 10.7683 14.073 12.19 14.447L12.758 14.534C12.943 14.544 13.128 14.53 13.314 14.521C13.6052 14.5056 13.8895 14.4268 14.147 14.29C14.2778 14.2223 14.4056 14.1489 14.53 14.07C14.53 14.07 14.5723 14.0413 14.655 13.98C14.79 13.88 14.873 13.809 14.985 13.692C15.069 13.6053 15.139 13.5047 15.195 13.39C15.273 13.227 15.351 12.916 15.383 12.657C15.407 12.459 15.4 12.351 15.397 12.284C15.393 12.177 15.304 12.066 15.207 12.019L14.625 11.758C14.625 11.758 13.755 11.379 13.223 11.137C13.1673 11.1128 13.1077 11.0989 13.047 11.096C12.9786 11.0888 12.9094 11.0965 12.8442 11.1184C12.779 11.1403 12.7192 11.176 12.669 11.223C12.664 11.221 12.597 11.278 11.874 12.154C11.8325 12.2098 11.7753 12.2519 11.7098 12.2751C11.6443 12.2982 11.5733 12.3013 11.506 12.284C11.4408 12.2666 11.377 12.2446 11.315 12.218C11.191 12.166 11.148 12.146 11.063 12.11C10.4889 11.8599 9.95743 11.5215 9.48799 11.107C9.36199 10.997 9.24499 10.877 9.12499 10.761C8.7316 10.3842 8.38874 9.95799 8.10499 9.493L8.04599 9.398C8.00425 9.3338 7.97003 9.26501 7.94399 9.193C7.90599 9.046 8.00499 8.928 8.00499 8.928C8.00499 8.928 8.24799 8.662 8.36099 8.518C8.47099 8.378 8.56399 8.242 8.62399 8.145C8.74199 7.955 8.77899 7.76 8.71699 7.609C8.43699 6.925 8.14766 6.24467 7.84899 5.568C7.78999 5.434 7.61499 5.338 7.45599 5.319C7.40199 5.31233 7.34799 5.307 7.29399 5.303C7.15972 5.2953 7.02508 5.29664 6.89099 5.307L7.09299 5.3Z" fill="#46B52B"/>
</svg>
