<svg width="96" height="99" viewBox="0 0 96 99" fill="none" xmlns="http://www.w3.org/2000/svg">
<g filter="url(#filter0_dd_1_42063)">
<path d="M12 39C12 21.3269 26.3269 7 44 7H48C65.6731 7 80 21.3269 80 39V43C80 60.6731 65.6731 75 48 75H44C26.3269 75 12 60.6731 12 43V39Z" fill="white"/>
<path d="M44 7.5H48C65.397 7.5 79.5 21.603 79.5 39V43C79.5 60.397 65.397 74.5 48 74.5H44C26.603 74.5 12.5 60.397 12.5 43V39C12.5 21.603 26.603 7.5 44 7.5Z" stroke="#46B52B"/>
<path d="M46.0015 26C54.286 26 61.0015 32.7155 61.0015 41C61.0015 49.2845 54.286 56 46.0015 56C43.3506 56.0046 40.7464 55.303 38.4565 53.9675L31.0075 56L33.0355 48.548C31.6989 46.2574 30.9968 43.652 31.0015 41C31.0015 32.7155 37.717 26 46.0015 26ZM40.8895 33.95L40.5895 33.962C40.3955 33.9754 40.206 34.0263 40.0315 34.112C39.8689 34.2043 39.7203 34.3194 39.5905 34.454C39.4105 34.6235 39.3085 34.7705 39.199 34.913C38.6442 35.6344 38.3454 36.52 38.35 37.43C38.353 38.165 38.545 38.8805 38.845 39.5495C39.4585 40.9025 40.468 42.335 41.8 43.6625C42.121 43.982 42.436 44.303 42.775 44.6015C44.4301 46.0586 46.4024 47.1095 48.535 47.6705L49.387 47.801C49.6645 47.816 49.942 47.795 50.221 47.7815C50.6578 47.7585 51.0842 47.6402 51.4705 47.435C51.6668 47.3335 51.8584 47.2234 52.045 47.105C52.045 47.105 52.1085 47.062 52.2325 46.97C52.435 46.82 52.5595 46.7135 52.7275 46.538C52.8535 46.408 52.9585 46.257 53.0425 46.085C53.1595 45.8405 53.2765 45.374 53.3245 44.9855C53.3605 44.6885 53.35 44.5265 53.3455 44.426C53.3395 44.2655 53.206 44.099 53.0605 44.0285L52.1875 43.637C52.1875 43.637 50.8825 43.0685 50.0845 42.7055C50.001 42.6691 49.9115 42.6483 49.8205 42.644C49.7178 42.6333 49.6141 42.6447 49.5163 42.6776C49.4184 42.7105 49.3288 42.764 49.2535 42.8345C49.246 42.8315 49.1455 42.917 48.061 44.231C47.9987 44.3146 47.913 44.3779 47.8147 44.4126C47.7164 44.4473 47.61 44.452 47.509 44.426C47.4112 44.3999 47.3155 44.3669 47.2225 44.327C47.0365 44.249 46.972 44.219 46.8445 44.165C45.9833 43.7899 45.1861 43.2822 44.482 42.6605C44.293 42.4955 44.1175 42.3155 43.9375 42.1415C43.3474 41.5763 42.8331 40.937 42.4075 40.2395L42.319 40.097C42.2564 40.0007 42.205 39.8975 42.166 39.7895C42.109 39.569 42.2575 39.392 42.2575 39.392C42.2575 39.392 42.622 38.993 42.7915 38.777C42.9565 38.567 43.096 38.363 43.186 38.2175C43.363 37.9325 43.4185 37.64 43.3255 37.4135C42.9055 36.3875 42.4715 35.367 42.0235 34.352C41.935 34.151 41.6725 34.007 41.434 33.9785C41.353 33.9685 41.272 33.9605 41.191 33.9545C40.9896 33.9429 40.7876 33.945 40.5865 33.9605L40.8895 33.95Z" fill="#46B52B"/>
</g>
<defs>
<filter id="filter0_dd_1_42063" x="0" y="0" width="96" height="99" filterUnits="userSpaceOnUse" color-interpolation-filters="sRGB">
<feFlood flood-opacity="0" result="BackgroundImageFix"/>
<feColorMatrix in="SourceAlpha" type="matrix" values="0 0 0 0 0 0 0 0 0 0 0 0 0 0 0 0 0 0 127 0" result="hardAlpha"/>
<feMorphology radius="2" operator="erode" in="SourceAlpha" result="effect1_dropShadow_1_42063"/>
<feOffset dx="2" dy="10"/>
<feGaussianBlur stdDeviation="8"/>
<feColorMatrix type="matrix" values="0 0 0 0 0 0 0 0 0 0 0 0 0 0 0 0 0 0 0.1 0"/>
<feBlend mode="normal" in2="BackgroundImageFix" result="effect1_dropShadow_1_42063"/>
<feColorMatrix in="SourceAlpha" type="matrix" values="0 0 0 0 0 0 0 0 0 0 0 0 0 0 0 0 0 0 127 0" result="hardAlpha"/>
<feOffset dy="-1"/>
<feGaussianBlur stdDeviation="3"/>
<feColorMatrix type="matrix" values="0 0 0 0 0 0 0 0 0 0 0 0 0 0 0 0 0 0 0.09 0"/>
<feBlend mode="normal" in2="effect1_dropShadow_1_42063" result="effect2_dropShadow_1_42063"/>
<feBlend mode="normal" in="SourceGraphic" in2="effect2_dropShadow_1_42063" result="shape"/>
</filter>
</defs>
</svg>
