<svg width="56" height="56" viewBox="0 0 56 56" fill="none" xmlns="http://www.w3.org/2000/svg">
<rect x="0.5" y="0.5" width="55" height="55" rx="15.5" fill="#0A66C2"/>
<rect x="0.5" y="0.5" width="55" height="55" rx="15.5" stroke="url(#paint0_linear_81_934)"/>
<path d="M20 29.9999C19.8108 30.0006 19.6252 29.9475 19.4649 29.8469C19.3047 29.7463 19.1762 29.6023 19.0945 29.4316C19.0129 29.2609 18.9813 29.0705 19.0035 28.8826C19.0257 28.6946 19.1008 28.5169 19.22 28.3699L29.12 18.1699C29.1943 18.0842 29.2955 18.0263 29.407 18.0057C29.5185 17.985 29.6337 18.0029 29.7337 18.0564C29.8337 18.1099 29.9126 18.1958 29.9573 18.3C30.0021 18.4042 30.0101 18.5206 29.98 18.6299L28.06 24.6499C28.0034 24.8014 27.9844 24.9644 28.0046 25.1249C28.0248 25.2854 28.0837 25.4386 28.1761 25.5713C28.2685 25.7041 28.3918 25.8124 28.5353 25.8871C28.6788 25.9617 28.8382 26.0004 29 25.9999H36C36.1892 25.9993 36.3748 26.0523 36.535 26.1529C36.6953 26.2535 36.8238 26.3976 36.9054 26.5683C36.9871 26.739 37.0187 26.9293 36.9965 27.1173C36.9743 27.3052 36.8992 27.483 36.78 27.6299L26.88 37.8299C26.8057 37.9156 26.7045 37.9736 26.593 37.9942C26.4815 38.0148 26.3663 37.9969 26.2663 37.9434C26.1663 37.8899 26.0874 37.804 26.0427 37.6998C25.9979 37.5956 25.9899 37.4793 26.02 37.3699L27.94 31.3499C27.9966 31.1984 28.0156 31.0354 27.9954 30.8749C27.9752 30.7144 27.9163 30.5612 27.8239 30.4285C27.7315 30.2957 27.6082 30.1874 27.4647 30.1128C27.3212 30.0381 27.1617 29.9994 27 29.9999H20Z" stroke="white" stroke-width="2" stroke-linecap="round" stroke-linejoin="round"/>
<defs>
<linearGradient id="paint0_linear_81_934" x1="65.5" y1="67.5" x2="-6.9184e-07" y2="-32" gradientUnits="userSpaceOnUse">
<stop stop-color="#031313"/>
<stop offset="1" stop-color="#B7B7B7"/>
</linearGradient>
</defs>
</svg>
