<svg width="56" height="56" viewBox="0 0 56 56" fill="none" xmlns="http://www.w3.org/2000/svg">
<rect x="0.5" y="0.5" width="55" height="55" rx="15.5" fill="#0A66C2"/>
<rect x="0.5" y="0.5" width="55" height="55" rx="15.5" stroke="url(#paint0_linear_81_956)"/>
<path d="M28 24V20H24" stroke="white" stroke-width="2" stroke-linecap="round" stroke-linejoin="round"/>
<path d="M34 24H22C20.8954 24 20 24.8954 20 26V34C20 35.1046 20.8954 36 22 36H34C35.1046 36 36 35.1046 36 34V26C36 24.8954 35.1046 24 34 24Z" stroke="white" stroke-width="2" stroke-linecap="round" stroke-linejoin="round"/>
<path d="M18 30H20" stroke="white" stroke-width="2" stroke-linecap="round" stroke-linejoin="round"/>
<path d="M36 30H38" stroke="white" stroke-width="2" stroke-linecap="round" stroke-linejoin="round"/>
<path d="M31 29V31" stroke="white" stroke-width="2" stroke-linecap="round" stroke-linejoin="round"/>
<path d="M25 29V31" stroke="white" stroke-width="2" stroke-linecap="round" stroke-linejoin="round"/>
<defs>
<linearGradient id="paint0_linear_81_956" x1="65.5" y1="67.5" x2="-6.9184e-07" y2="-32" gradientUnits="userSpaceOnUse">
<stop stop-color="#031313"/>
<stop offset="1" stop-color="#B7B7B7"/>
</linearGradient>
</defs>
</svg>
