<svg width="56" height="56" viewBox="0 0 56 56" fill="none" xmlns="http://www.w3.org/2000/svg">
<rect x="0.5" y="0.5" width="55" height="55" rx="15.5" fill="#0A66C2"/>
<rect x="0.5" y="0.5" width="55" height="55" rx="15.5" stroke="url(#paint0_linear_81_940)"/>
<path d="M28 19H21C20.4696 19 19.9609 19.2107 19.5858 19.5858C19.2107 19.9609 19 20.4696 19 21V35C19 35.5304 19.2107 36.0391 19.5858 36.4142C19.9609 36.7893 20.4696 37 21 37H35C35.5304 37 36.0391 36.7893 36.4142 36.4142C36.7893 36.0391 37 35.5304 37 35V28" stroke="white" stroke-width="2" stroke-linecap="round" stroke-linejoin="round"/>
<path d="M34.3751 18.625C34.7729 18.2272 35.3125 18.0037 35.8751 18.0037C36.4377 18.0037 36.9773 18.2272 37.3751 18.625C37.7729 19.0228 37.9964 19.5624 37.9964 20.125C37.9964 20.6876 37.7729 21.2272 37.3751 21.625L28.3621 30.639C28.1246 30.8762 27.8313 31.0499 27.5091 31.144L24.6361 31.984C24.55 32.0091 24.4588 32.0106 24.372 31.9883C24.2852 31.9661 24.2059 31.9209 24.1425 31.8575C24.0792 31.7942 24.034 31.7149 24.0117 31.6281C23.9895 31.5412 23.991 31.45 24.0161 31.364L24.8561 28.491C24.9506 28.169 25.1246 27.876 25.3621 27.639L34.3751 18.625Z" stroke="white" stroke-width="2" stroke-linecap="round" stroke-linejoin="round"/>
<defs>
<linearGradient id="paint0_linear_81_940" x1="65.5" y1="67.5" x2="-6.9184e-07" y2="-32" gradientUnits="userSpaceOnUse">
<stop stop-color="#031313"/>
<stop offset="1" stop-color="#B7B7B7"/>
</linearGradient>
</defs>
</svg>
