<svg width="56" height="56" viewBox="0 0 56 56" fill="none" xmlns="http://www.w3.org/2000/svg">
<rect x="0.5" y="0.5" width="55" height="55" rx="15.5" fill="#0A66C2"/>
<rect x="0.5" y="0.5" width="55" height="55" rx="15.5" stroke="url(#paint0_linear_81_947)"/>
<path d="M31 34H26" stroke="white" stroke-width="2" stroke-linecap="round" stroke-linejoin="round"/>
<path d="M34 30H26" stroke="white" stroke-width="2" stroke-linecap="round" stroke-linejoin="round"/>
<path d="M20 38H36C36.5304 38 37.0391 37.7893 37.4142 37.4142C37.7893 37.0391 38 36.5304 38 36V20C38 19.4696 37.7893 18.9609 37.4142 18.5858C37.0391 18.2107 36.5304 18 36 18H24C23.4696 18 22.9609 18.2107 22.5858 18.5858C22.2107 18.9609 22 19.4696 22 20V36C22 36.5304 21.7893 37.0391 21.4142 37.4142C21.0391 37.7893 20.5304 38 20 38ZM20 38C19.4696 38 18.9609 37.7893 18.5858 37.4142C18.2107 37.0391 18 36.5304 18 36V27C18 26.4696 18.2107 25.9609 18.5858 25.5858C18.9609 25.2107 19.4696 25 20 25H22" stroke="white" stroke-width="2" stroke-linecap="round" stroke-linejoin="round"/>
<path d="M33 22H27C26.4477 22 26 22.4477 26 23V25C26 25.5523 26.4477 26 27 26H33C33.5523 26 34 25.5523 34 25V23C34 22.4477 33.5523 22 33 22Z" stroke="white" stroke-width="2" stroke-linecap="round" stroke-linejoin="round"/>
<defs>
<linearGradient id="paint0_linear_81_947" x1="65.5" y1="67.5" x2="-6.9184e-07" y2="-32" gradientUnits="userSpaceOnUse">
<stop stop-color="#031313"/>
<stop offset="1" stop-color="#B7B7B7"/>
</linearGradient>
</defs>
</svg>
