<svg width="24" height="24" viewBox="0 0 24 24" fill="none" xmlns="http://www.w3.org/2000/svg">
<path d="M23 0H1C0.447715 0 0 0.447715 0 1V23C0 23.5523 0.447715 24 1 24H12.8191V14.706H9.6915V11.0839H12.8191V8.41269C12.8191 5.31281 14.7125 3.62486 17.4778 3.62486C18.8024 3.62486 19.9408 3.72348 20.2726 3.76756V7.00712L18.3547 7.00799C16.8508 7.00799 16.5596 7.72264 16.5596 8.77133V11.0839H20.1463L19.6793 14.706H16.5596V24H23C23.5523 24 24 23.5523 24 23V1C24 0.447715 23.5523 0 23 0Z" fill="white"/>
</svg>
