<svg width="24" height="24" viewBox="0 0 24 24" fill="none" xmlns="http://www.w3.org/2000/svg">
<path fill-rule="evenodd" clip-rule="evenodd" d="M7.0525 0.072C8.3325 0.014 8.741 0 12 0C15.259 0 15.6675 0.014 16.9475 0.072C18.8985 0.161 20.611 0.639 21.986 2.014C23.3615 3.3895 23.839 5.1025 23.928 7.0525C23.986 8.3325 24 8.741 24 12C24 15.259 23.986 15.6675 23.928 16.9475C23.839 18.8985 23.361 20.611 21.986 21.986C20.6105 23.3615 18.897 23.839 16.9475 23.928C15.6675 23.986 15.259 24 12 24C8.741 24 8.3325 23.986 7.0525 23.928C5.1015 23.839 3.389 23.361 2.014 21.986C0.6385 20.6105 0.161 18.8975 0.072 16.9475C0.014 15.6675 0 15.259 0 12C0 8.741 0.014 8.3325 0.072 7.0525C0.161 5.1015 0.639 3.389 2.014 2.014C3.3895 0.6385 5.1025 0.161 7.0525 0.072ZM16.8484 2.23211C15.5829 2.17411 15.2034 2.16211 11.9994 2.16211C8.79538 2.16211 8.41588 2.17461 7.15038 2.23211C5.78488 2.29461 4.51738 2.56811 3.54238 3.54311C2.56738 4.51811 2.29388 5.78561 2.23138 7.15111C2.17338 8.41661 2.16138 8.79611 2.16138 12.0001C2.16138 15.2041 2.17388 15.5836 2.23138 16.8491C2.29388 18.2146 2.56738 19.4821 3.54238 20.4571C4.51738 21.4321 5.78488 21.7056 7.15038 21.7681C8.41538 21.8261 8.79488 21.8381 11.9994 21.8381C15.2039 21.8381 15.5834 21.8256 16.8484 21.7681C18.2139 21.7056 19.4814 21.4321 20.4564 20.4571C21.4314 19.4821 21.7049 18.2146 21.7674 16.8491C21.8254 15.5836 21.8374 15.2041 21.8374 12.0001C21.8374 8.79611 21.8249 8.41661 21.7674 7.15111C21.7049 5.78561 21.4314 4.51811 20.4564 3.54311C19.4814 2.56811 18.2139 2.29461 16.8484 2.23211Z" fill="white"/>
<path fill-rule="evenodd" clip-rule="evenodd" d="M6.54541 12.5457C6.54541 9.23212 9.23139 6.54565 12.5454 6.54565C15.8594 6.54565 18.5454 9.23163 18.5454 12.5457C18.5454 15.8597 15.8594 18.5457 12.5454 18.5457C9.23139 18.5457 6.54541 15.8592 6.54541 12.5457ZM8.65112 12.5455C8.65112 14.6964 10.395 16.4403 12.546 16.4403C14.6969 16.4403 16.4408 14.6964 16.4408 12.5455C16.4408 10.3945 14.6969 8.65063 12.546 8.65063C10.395 8.65063 8.65112 10.3945 8.65112 12.5455Z" fill="white"/>
<circle cx="17.9996" cy="5.99989" r="1.63636" fill="white"/>
</svg>
