<svg width="24" height="24" viewBox="0 0 24 24" fill="none" xmlns="http://www.w3.org/2000/svg">
<path fill-rule="evenodd" clip-rule="evenodd" d="M1 0H23C23.55 0 24 0.45 24 1V23C24 23.55 23.55 24 23 24H1C0.45 24 0 23.55 0 23V1C0 0.45 0.45 0 1 0ZM3.54932 20.45H7.09932V9H3.54932V20.45ZM5.34956 7.44991C4.19956 7.44991 3.29956 6.54991 3.29956 5.39991C3.29956 4.24991 4.19956 3.34991 5.34956 3.34991C6.49956 3.34991 7.39956 4.24991 7.39956 5.39991C7.39956 6.49991 6.49956 7.44991 5.34956 7.44991ZM16.9001 20.4499H20.4001V14.1499C20.4001 11.0499 19.7501 8.69989 16.1501 8.69989C14.4501 8.69989 13.2501 9.64989 12.8001 10.5499H12.7501V8.99989H9.3501V20.4499H12.9001V14.7999C12.9001 13.2999 13.2001 11.8499 15.0501 11.8499C16.9001 11.8499 16.9001 13.5499 16.9001 14.8999V20.4499Z" fill="white"/>
</svg>
