<svg width="351" height="375" viewBox="0 0 351 375" fill="none" xmlns="http://www.w3.org/2000/svg">
<g filter="url(#filter0_f_1_43542)">
<path d="M187.864 19.8082H164.51V32.1722H187.864V19.8082Z" fill="white" fill-opacity="0.05"/>
<path d="M275.786 79.224L329.154 180.03C330.647 182.85 331.464 185.979 331.542 189.169L331.633 192.92C331.721 196.51 330.869 200.061 329.161 203.221L325.966 209.131C325.256 210.444 324.406 211.676 323.43 212.806L199.378 356.36C195.931 360.35 189.459 359.128 187.704 354.155L177.217 324.443H194.046L297.976 198.085C303.428 191.455 304.2 182.141 299.913 174.704L247.224 83.2964C245.678 80.6159 243.549 78.3177 240.994 76.5724L175.5 31.8287V15.3434H184.492C187.355 15.3434 190.147 16.238 192.476 17.9023L196.107 20.495L267.395 66.4873C269.513 67.8542 271.215 69.7778 272.313 72.0475L275.786 79.224Z" fill="white" fill-opacity="0.05" stroke="white" stroke-opacity="0.05" stroke-width="0.0469667"/>
<path d="M74.8709 78.8806L21.5032 179.686C20.0101 182.507 19.1924 185.635 19.1146 188.825L19.0231 192.576C18.9355 196.167 19.7879 199.718 21.4958 202.878L24.7014 208.808C25.404 210.108 26.2443 211.328 27.2079 212.448L151.232 356.61C154.685 360.624 161.191 359.385 162.928 354.383L173.439 324.1H156.611L52.6811 197.742C47.2284 191.112 46.4563 181.797 50.743 174.361L103.433 82.953C104.979 80.2725 107.107 77.9743 109.662 76.229L175.157 31.4853V15H166.165C163.302 15 160.51 15.8947 158.18 17.5589L154.55 20.1517L83.262 66.1439C81.1432 67.5108 79.4416 69.4344 78.3434 71.7041L74.8709 78.8806Z" fill="white" fill-opacity="0.05"/>
<path d="M194.046 324.1H156.954V359.131H194.046V324.1Z" fill="white" fill-opacity="0.05"/>
<path d="M175.157 95.3659L221.521 126.619L235.603 110.821L175.157 70.6379L111.963 110.821L127.418 126.619L175.157 95.3659Z" fill="white" fill-opacity="0.05" stroke="white" stroke-opacity="0.05" stroke-width="0.0469667"/>
<path d="M177.217 251.29L72.1233 127.993L51.1732 142.074L177.217 288.725L298.797 142.074L281.968 124.215L177.217 251.29Z" fill="white" fill-opacity="0.05" stroke="white" stroke-opacity="0.05" stroke-width="0.0469667"/>
<path d="M175.843 165.429L96.8512 69.6076L80.0225 85.7495L175.843 199.773L271.321 85.7495L256.553 65.8297L175.843 165.429Z" fill="white" fill-opacity="0.05" stroke="white" stroke-opacity="0.05" stroke-width="0.0469667"/>
</g>
<defs>
<filter id="filter0_f_1_43542" x="-15" y="0" width="381" height="381" filterUnits="userSpaceOnUse" color-interpolation-filters="sRGB">
<feFlood flood-opacity="0" result="BackgroundImageFix"/>
<feBlend mode="normal" in="SourceGraphic" in2="BackgroundImageFix" result="shape"/>
<feGaussianBlur stdDeviation="7.5" result="effect1_foregroundBlur_1_43542"/>
</filter>
</defs>
</svg>
